<svg width="100" height="100" viewBox="0 0 100 100" fill="none" xmlns="http://www.w3.org/2000/svg">
<path opacity="0.5" d="M50 0L55.9017 31.8364L79.3893 9.54915L65.4509 38.7743L97.5528 34.5491L69.0983 50L97.5528 65.4509L65.4509 61.2257L79.3893 90.4509L55.9017 68.1636L50 100L44.0983 68.1636L20.6107 90.4509L34.5491 61.2257L2.44717 65.4509L30.9017 50L2.44717 34.5491L34.5491 38.7743L20.6107 9.54915L44.0983 31.8364L50 0Z" fill="#FF5C00"/>
<path opacity="0.5" d="M-2.18557e-06 50L31.8364 44.0983L9.54915 20.6107L38.7743 34.5491L34.5491 2.44717L50 30.9017L65.4508 2.44717L61.2257 34.5491L90.4508 20.6107L68.1636 44.0983L100 50L68.1636 55.9017L90.4509 79.3893L61.2257 65.4508L65.4509 97.5528L50 69.0983L34.5491 97.5528L38.7743 65.4508L9.54915 79.3893L31.8364 55.9017L-2.18557e-06 50Z" fill="#FF1B1C"/>
</svg>
